# xmcd
#
# Track frame offsets: 
#        150
#        15197
#        28112
#        43528
#        58518
#        72370
#        87515
#        103088
#        114922
#        129966
#        141983
#        155778
#        169006
#        181796
#        195335
#        209917
#        224060
#        237789
#        251422
#        264513
#        277424
#        288661
#        301719
#        317309
#        330586
#        344156
#
# Disc length: 4780 seconds
#
# Revision: 0
# Processed by: cddbd v1.5.2PL0 Copyright (c) Steve Scherf et al.
# Submitted via: ExactAudioCopy v0.99pb3
#
DISCID=8712aa1a
DTITLE=Big Bill Broonzy - Four Classic Albums Plus - CD Two
DYEAR=2010
DGENRE=Blues
TTITLE0=John Henry
TTITLE1=Crawdad
TTITLE2=Bill Bailey
TTITLE3=Make Me Getaway
TTITLE4=Blue Tail Fly
TTITLE5=Blackwater Blues
TTITLE6=In The Evening
TTITLE7=Trouble In Mind
TTITLE8=Walkin' The Lonesome Road
TTITLE9=Mopper's Blues
TTITLE10=Get Back
TTITLE11=Hey, Hey
TTITLE12=Willie Mae
TTITLE13=Stump Blues
TTITLE14=I Know She Will
TTITLE15=Hollerin' Blues
TTITLE16=Leavin' Day
TTITLE17=Southbound Train
TTITLE18=You Changed
TTITLE19=Tomorrow
TTITLE20=I Stay Blue All The Time
TTITLE21=Water Coast
TTITLE22=Five Feet Seven
TTITLE23=I Wonder
TTITLE24=Keep Your Hands Off Her
TTITLE25=Mindin' My Own Business
EXTD=
EXTT0=
EXTT1=
EXTT2=
EXTT3=
EXTT4=
EXTT5=
EXTT6=
EXTT7=
EXTT8=
EXTT9=
EXTT10=
EXTT11=
EXTT12=
EXTT13=
EXTT14=
EXTT15=
EXTT16=
EXTT17=
EXTT18=
EXTT19=
EXTT20=
EXTT21=
EXTT22=
EXTT23=
EXTT24=
EXTT25=
PLAYORDER=
